<svg width="28.000000" height="42.000000" viewBox="0 0 28 42" fill="none" xmlns="http://www.w3.org/2000/svg" xmlns:xlink="http://www.w3.org/1999/xlink">
	<desc>
			Created with Pixso.
	</desc>
	<defs/>
	<path id="path0_fill" d="M7 42C10.86 42 14 38.86 14 35L14 28L7 28C3.13 28 0 31.13 0 35C0 38.86 3.13 42 7 42Z" fill="#0ACF83" fill-opacity="1.000000" fill-rule="nonzero"/>
	<path id="path1_fill" d="M0 21C0 17.13 3.13 14 7 14L14 14L14 28L7 28C3.13 28 0 24.86 0 21Z" fill="#A259FF" fill-opacity="1.000000" fill-rule="nonzero"/>
	<path id="path1_fill_1_" d="M0 7C0 3.13 3.13 0 7 0L14 0L14 14L7 14C3.13 14 0 10.86 0 7Z" fill="#F24E1E" fill-opacity="1.000000" fill-rule="nonzero"/>
	<path id="path2_fill" d="M14 0L21 0C24.86 0 28 3.13 28 7C28 10.86 24.86 14 21 14L14 14L14 0Z" fill="#FF7262" fill-opacity="1.000000" fill-rule="nonzero"/>
	<path id="path3_fill" d="M28 21C28 24.86 24.86 28 21 28C17.13 28 14 24.86 14 21C14 17.13 17.13 14 21 14C24.86 14 28 17.13 28 21Z" fill="#1ABCFE" fill-opacity="1.000000" fill-rule="nonzero"/>
</svg>
