<svg width="28.000000" height="32.000977" viewBox="0 0 28 32.001" fill="none" xmlns="http://www.w3.org/2000/svg" xmlns:xlink="http://www.w3.org/1999/xlink">
	<desc>
			Created with Pixso.
	</desc>
	<defs/>
	<path id="Vector" d="M24.24 5.97C24.13 5.96 21.68 5.77 21.68 5.77C21.68 5.77 19.98 4.08 19.79 3.89C19.61 3.7 19.24 3.76 19.1 3.8C19.08 3.81 18.73 3.92 18.15 4.1C17.58 2.45 16.58 0.95 14.82 0.95C14.77 0.95 14.72 0.95 14.67 0.95C14.17 0.29 13.54 0 13.01 0C8.9 0 6.94 5.15 6.32 7.78C4.73 8.27 3.59 8.63 3.45 8.67C2.56 8.95 2.53 8.98 2.41 9.83C2.33 10.46 0 28.58 0 28.58L18.15 32L28 29.86C28 29.86 24.54 6.39 24.52 6.23C24.5 6.07 24.36 5.98 24.24 5.97ZM14.53 5.04C14.53 5.11 14.53 5.16 14.53 5.22C13.53 5.53 12.45 5.87 11.36 6.21C11.97 3.84 13.11 2.7 14.11 2.26C14.37 2.9 14.53 3.81 14.53 5.04ZM12.89 1.1C13.07 1.1 13.25 1.16 13.42 1.28C12.11 1.9 10.7 3.47 10.1 6.6C9.23 6.87 8.38 7.14 7.59 7.38C8.29 4.99 9.94 1.1 12.89 1.1ZM13.6 15.06C13.6 15.06 12.54 14.49 11.24 14.49C9.33 14.49 9.23 15.69 9.23 16C9.23 17.65 13.53 18.29 13.53 22.17C13.53 25.22 11.6 27.19 9 27.19C5.88 27.19 4.29 25.24 4.29 25.24L5.12 22.46C5.12 22.46 6.76 23.88 8.15 23.88C9.05 23.88 9.42 23.16 9.42 22.64C9.42 20.48 5.89 20.38 5.89 16.83C5.89 13.84 8.02 10.95 12.33 10.95C13.99 10.95 14.81 11.43 14.81 11.43L13.6 15.06ZM15.61 4.89C15.61 4.78 15.61 4.67 15.61 4.55C15.61 3.53 15.47 2.71 15.24 2.06C16.15 2.17 16.75 3.21 17.14 4.41C16.69 4.55 16.17 4.71 15.61 4.89Z" fill="#95C675" fill-opacity="1.000000" fill-rule="nonzero"/>
	<path id="Vector" d="M24.24 5.97C24.13 5.96 21.68 5.77 21.68 5.77C21.68 5.77 19.98 4.08 19.79 3.89C19.61 3.7 19.24 3.76 19.1 3.8C19.08 3.81 18.73 3.92 18.15 4.1C17.58 2.45 16.58 0.95 14.82 0.95C14.77 0.95 14.72 0.95 14.67 0.95C14.17 0.29 13.54 0 13.01 0C8.9 0 7.89 5.15 7.27 7.78C5.68 8.27 4.45 11 4.31 11.05C3.42 11.33 3.39 11.36 3.27 12.2C3.18 12.84 0 28.58 0 28.58L18.15 32L28 29.86C28 29.86 24.54 6.39 24.52 6.23C24.5 6.07 24.36 5.98 24.24 5.97ZM14.53 5.04C14.53 5.11 14.53 5.16 14.53 5.22C13.53 5.53 12.45 5.87 11.36 6.21C11.97 3.84 13.11 2.7 14.11 2.26C14.37 2.9 14.53 3.81 14.53 5.04ZM12.89 1.1C13.07 1.1 13.25 1.16 13.42 1.28C12.11 1.9 10.7 3.47 10.1 6.6C9.23 6.87 8.38 7.14 7.59 7.38C8.29 4.99 9.94 1.1 12.89 1.1ZM13.6 15.06C13.6 15.06 12.54 14.49 11.24 14.49C9.33 14.49 9.23 15.69 9.23 16C9.23 17.65 13.53 18.29 13.53 22.17C13.53 25.22 11.6 27.19 9 27.19C5.88 27.19 4.29 25.24 4.29 25.24L5.12 22.46C5.12 22.46 6.76 23.88 8.15 23.88C9.05 23.88 9.42 23.16 9.42 22.64C9.42 20.48 5.89 20.38 5.89 16.83C5.89 13.84 8.02 10.95 12.33 10.95C13.99 10.95 14.81 11.43 14.81 11.43L13.6 15.06ZM15.61 4.89C15.61 4.78 15.61 4.67 15.61 4.55C15.61 3.53 15.47 2.71 15.24 2.06C16.15 2.17 16.75 3.21 17.14 4.41C16.69 4.55 16.17 4.71 15.61 4.89Z" fill="#79B259" fill-opacity="1.000000" fill-rule="nonzero"/>
	<path id="Vector" d="M18.15 32L28 29.86C28 29.86 24.54 6.39 24.52 6.23C24.5 6.06 24.36 5.98 24.24 5.97C24.13 5.96 21.68 5.77 21.68 5.77C21.68 5.77 19.98 4.08 19.79 3.89C19.69 3.79 19.54 3.76 19.4 3.76C19.03 4.39 19.11 5.6 19.11 5.6L17.95 31.96L18.15 32Z" fill="#55932C" fill-opacity="1.000000" fill-rule="nonzero"/>
	<path id="Vector" d="M14.82 0.95C14.77 0.95 14.72 0.95 14.67 0.95C14.17 0.29 13.54 0 13.01 0C8.92 0 6.95 5.11 6.33 7.75L7.6 7.35C8.3 4.96 9.96 1.1 12.89 1.1C13.07 1.1 13.25 1.16 13.42 1.28C12.11 1.9 10.7 3.46 10.1 6.58L11.36 6.19C11.98 3.83 13.12 2.69 14.12 2.26C14.37 2.9 14.53 3.81 14.53 5.04C14.53 5.1 14.53 5.15 14.53 5.21L15.61 4.87C15.61 4.77 15.61 4.67 15.61 4.55C15.61 3.53 15.47 2.71 15.24 2.06C16.15 2.17 16.75 3.21 17.14 4.4L18.15 4.09C17.58 2.45 16.58 0.95 14.82 0.95Z" fill="#4A7A2B" fill-opacity="1.000000" fill-rule="nonzero"/>
	<path id="Vector" d="M22.09 5.81C21.84 5.79 21.68 5.77 21.68 5.77C21.68 5.77 19.98 4.08 19.79 3.89C19.69 3.79 19.54 3.76 19.4 3.76C19.03 4.39 19.11 5.6 19.11 5.6L17.95 31.96L18.15 32L23.39 30.86L22.09 5.81Z" fill="#4C822A" fill-opacity="1.000000" fill-rule="nonzero"/>
</svg>
