<svg width="28.000000" height="28.000000" viewBox="0 0 28 28" fill="none" xmlns="http://www.w3.org/2000/svg" xmlns:xlink="http://www.w3.org/1999/xlink">
	<desc>
			Created with Pixso.
	</desc>
	<defs/>
	<path id="Vector" d="M28 14C28 21.73 21.73 28 14 28C6.26 28 0 21.73 0 14C0 6.26 6.26 0 14 0C21.73 0 28 6.26 28 14Z" fill="#4353FF" fill-opacity="1.000000" fill-rule="evenodd"/>
	<path id="Vector" d="M18.11 12.33L16.84 16.33C16.84 16.03 15.96 9.39 15.96 9.39C13.95 9.39 12.88 10.82 12.32 12.33L10.78 16.34C10.78 16.05 10.56 12.37 10.56 12.37C10.48 11.57 10.12 10.83 9.53 10.28C8.95 9.73 8.18 9.42 7.38 9.4L9.02 19.45C11.12 19.45 12.26 18.02 12.85 16.51L14.16 13.09C14.16 13.23 15.04 19.45 15.04 19.45C15.89 19.45 16.73 19.17 17.42 18.66C18.12 18.15 18.63 17.44 18.89 16.62L21.86 9.39C19.76 9.39 18.66 10.82 18.1 12.33L18.11 12.33Z" fill="#FFFFFF" fill-opacity="1.000000" fill-rule="nonzero"/>
</svg>
