<svg width="12.000000" height="12.000000" viewBox="0 0 12 12" fill="none" xmlns="http://www.w3.org/2000/svg" xmlns:xlink="http://www.w3.org/1999/xlink">
	<desc>
			Created with Pixso.
	</desc>
	<defs/>
	<path id="Vector" d="M6 0C2.68 0 0 2.68 0 6C0 9.31 2.68 12 6 12C9.31 12 12 9.31 12 6C12 2.68 9.31 0 6 0ZM9.08 4.55L5.56 8.08C5.45 8.19 5.28 8.27 5.12 8.27C4.96 8.27 4.79 8.21 4.68 8.08L2.91 6.31C2.66 6.06 2.66 5.67 2.91 5.42C3.16 5.17 3.54 5.17 3.79 5.42L5.12 6.75L8.21 3.66C8.46 3.41 8.84 3.41 9.09 3.66C9.33 3.91 9.33 4.3 9.08 4.55Z" fill="#35332F" fill-opacity="1.000000" fill-rule="nonzero"/>
</svg>
