<svg width="28.000000" height="38.000000" viewBox="0 0 28 38" fill="none" xmlns="http://www.w3.org/2000/svg" xmlns:xlink="http://www.w3.org/1999/xlink">
	<desc>
			Created with Pixso.
	</desc>
	<defs>
		<clipPath id="clip0_236">
			<rect id="4691347_php_icon 1" width="28.000000" height="38.000000" fill="white" fill-opacity="0"/>
		</clipPath>
	</defs>
	<rect id="4691347_php_icon 1" width="28.000000" height="38.000000" fill="#FFFFFF" fill-opacity="0"/>
	<g clip-path="url(#clip0_236)">
		<path id="Vector" d="M8.17 16.16L7.07 16.16L6.47 20.35L7.45 20.35C8.1 20.35 8.58 20.18 8.9 19.85C9.22 19.52 9.43 18.97 9.54 18.19C9.65 17.45 9.6 16.92 9.39 16.62C9.19 16.31 8.78 16.16 8.17 16.16ZM14 9C6.26 9 0 13.48 0 19C0 24.51 6.26 28.99 14 28.99C21.73 28.99 28 24.51 28 19C28 13.48 21.73 9 14 9ZM10.19 20.8C9.89 21.19 9.52 21.49 9.12 21.67C8.73 21.84 8.23 21.93 7.62 21.93L6.24 21.93L5.86 24.59L4.26 24.59L5.69 14.58L8.78 14.58C9.71 14.58 10.39 14.91 10.82 15.57C11.24 16.23 11.37 17.16 11.2 18.34C11.14 18.81 11.02 19.27 10.85 19.69C10.68 20.09 10.46 20.46 10.19 20.8ZM14.89 21.93L15.52 17.5C15.59 17 15.57 16.65 15.44 16.47C15.32 16.28 15.05 16.19 14.64 16.19L13.37 16.19L12.54 21.93L10.95 21.93L12.38 11.91L13.98 11.91L13.6 14.58L15.02 14.58C15.91 14.58 16.53 14.79 16.87 15.21C17.21 15.64 17.31 16.32 17.17 17.27L16.51 21.93L14.89 21.93ZM23.75 18.34C23.69 18.81 23.57 19.27 23.39 19.69C23.23 20.09 23.01 20.46 22.74 20.8C22.43 21.19 22.07 21.49 21.67 21.67C21.28 21.84 20.78 21.93 20.17 21.93L18.79 21.93L18.41 24.59L16.8 24.59L18.24 14.58L21.33 14.58C22.26 14.58 22.94 14.91 23.36 15.57C23.79 16.23 23.92 17.16 23.75 18.34ZM20.72 16.16L19.62 16.16L19.02 20.35L20 20.35C20.65 20.35 21.13 20.18 21.45 19.85C21.76 19.52 21.98 18.97 22.09 18.19C22.2 17.45 22.15 16.92 21.94 16.62C21.74 16.31 21.33 16.16 20.72 16.16Z" fill="#000000" fill-opacity="1.000000" fill-rule="nonzero"/>
	</g>
</svg>
